<svg xmlns="http://www.w3.org/2000/svg" version="1.1" xmlns:xlink="http://www.w3.org/1999/xlink" width="200" height="200"><svg xmlns="http://www.w3.org/2000/svg" version="1.1" xmlns:xlink="http://www.w3.org/1999/xlink" viewBox="0 0 200 200"><rect width="200" height="200" fill="url('#gradient')"></rect><defs><linearGradient id="SvgjsLinearGradient1001" gradientTransform="rotate(45 0.5 0.5)"><stop offset="0%" stop-color="#faf8f7"></stop><stop offset="100%" stop-color="#807a78"></stop></linearGradient></defs><g><g fill="#3b555c" transform="matrix(5.1965040879616575,0,0,5.1965040879616575,7.008057366484223,136.95140043715205)" stroke="#ecdfa5" stroke-width="0.55"><path d="M10.79-2.54L10.79 0L0.87 0L0.87-2.15L5.44-6.95Q7.13-8.88 7.13-10.01L7.13-10.01Q7.13-10.93 6.73-11.41Q6.33-11.88 5.57-11.88L5.57-11.88Q4.81-11.88 4.35-11.25Q3.88-10.61 3.88-9.65L3.88-9.65L0.58-9.65Q0.58-10.96 1.23-12.07Q1.88-13.17 3.05-13.80Q4.21-14.42 5.64-14.42L5.64-14.42Q7.95-14.42 9.19-13.36Q10.44-12.29 10.44-10.30L10.44-10.30Q10.44-9.46 10.13-8.67Q9.81-7.87 9.16-7.00Q8.50-6.12 7.03-4.66L7.03-4.66L5.20-2.54L10.79-2.54ZM17.33 0L12.66 0L12.66-14.22L17.24-14.22Q19.12-14.22 20.63-13.36Q22.13-12.51 22.97-10.95Q23.82-9.39 23.83-7.46L23.83-7.46L23.83-6.81Q23.83-4.85 23.00-3.31Q22.18-1.76 20.68-0.88Q19.18-0.01 17.33 0L17.33 0ZM17.24-11.57L16.08-11.57L16.08-2.64L17.28-2.64Q18.75-2.64 19.54-3.69Q20.33-4.74 20.33-6.81L20.33-6.81L20.33-7.42Q20.33-9.48 19.54-10.53Q18.75-11.57 17.24-11.57L17.24-11.57ZM25.03-4.82L25.02-5.38Q25.02-6.96 25.63-8.20Q26.25-9.43 27.40-10.10Q28.55-10.76 30.11-10.76L30.11-10.76Q32.48-10.76 33.85-9.29Q35.21-7.82 35.21-5.29L35.21-5.29L35.21-5.18Q35.21-2.71 33.84-1.25Q32.47 0.20 30.13 0.20L30.13 0.20Q27.87 0.20 26.50-1.16Q25.14-2.51 25.03-4.82L25.03-4.82ZM28.32-5.77L28.31-5.18Q28.31-3.71 28.77-3.03Q29.23-2.34 30.13-2.34L30.13-2.34Q31.88-2.34 31.92-5.05L31.92-5.05L31.92-5.38Q31.92-8.22 30.11-8.22L30.11-8.22Q28.46-8.22 28.32-5.77L28.32-5.77Z"></path></g></g></svg><style>@media (prefers-color-scheme: light) { :root { filter: none; } }
@media (prefers-color-scheme: dark) { :root { filter: none; } }
</style></svg>